<?xml version="1.0" encoding="iso-8859-1"?>
<!-- Generator: Adobe Illustrator 19.0.0, SVG Export Plug-In . SVG Version: 6.00 Build 0)  -->
<svg version="1.1" id="Capa_1" xmlns="http://www.w3.org/2000/svg" xmlns:xlink="http://www.w3.org/1999/xlink" x="0px" y="0px"
	 viewBox="0 0 512 512" style="enable-background:new 0 0 512 512;" xml:space="preserve">
<g>
	<path style="fill:#464646;" d="M344.041,479.988c-3.215,0-6.248-1.952-7.472-5.133L296.552,370.81
		c-0.353-0.916-0.533-1.89-0.533-2.873V79.812c0-4.42,3.583-8.003,8.003-8.003s8.003,3.583,8.003,8.003v286.639l39.484,102.658
		c1.587,4.125-0.471,8.756-4.597,10.343C345.967,479.816,344.996,479.988,344.041,479.988z"/>
	<path style="fill:#464646;" d="M167.961,479.988c-0.955,0-1.927-0.172-2.871-0.535c-4.126-1.587-6.184-6.218-4.597-10.343
		l39.484-102.658V79.812c0-4.42,3.583-8.003,8.003-8.003s8.003,3.583,8.003,8.003v288.125c0,0.982-0.181,1.956-0.533,2.873
		l-40.017,104.045C174.21,478.036,171.177,479.988,167.961,479.988z"/>
	<path style="fill:#464646;" d="M304.022,183.857H207.98c-4.42,0-8.003-3.583-8.003-8.003s3.583-8.003,8.003-8.003h96.042
		c4.42,0,8.003,3.583,8.003,8.003S308.442,183.857,304.022,183.857z"/>
	<path style="fill:#464646;" d="M304.022,87.816H207.98c-4.42,0-8.003-3.583-8.003-8.003s3.583-8.003,8.003-8.003h96.042
		c4.42,0,8.003,3.583,8.003,8.003S308.442,87.816,304.022,87.816z"/>
	<path style="fill:#464646;" d="M304.022,279.899H207.98c-4.42,0-8.003-3.583-8.003-8.003s3.583-8.003,8.003-8.003h96.042
		c4.42,0,8.003,3.583,8.003,8.003S308.442,279.899,304.022,279.899z"/>
	<path style="fill:#464646;" d="M304.022,375.941H207.98c-4.42,0-8.003-3.583-8.003-8.004s3.583-8.003,8.003-8.003h96.042
		c4.42,0,8.003,3.583,8.003,8.003S308.442,375.941,304.022,375.941z"/>
</g>
<path style="fill:#9C969E;" d="M269.172,404.659l37.844-28.939l-2.993-7.783V356.62l-36.703-36.703l36.703-36.703v-22.635
	l-36.703-36.703l36.703-36.703v-22.635l-36.703-36.703l36.703-36.703v-11.32h-96.042v11.317l36.703,36.703l-36.703,36.703v22.635
	l36.703,36.703l-36.703,36.703v22.635l36.703,36.703l-36.703,36.703v11.317l-2.993,7.783l37.844,28.939l-69.38,53.055l-5.488,14.268
	h13.171l74.866-57.248l74.868,57.251h13.171l-5.488-14.268L269.172,404.659z M227.301,87.816h57.4l-28.7,28.7L227.301,87.816z
	 M219.298,175.854l36.703-36.704l36.703,36.703l-36.703,36.704L219.298,175.854z M219.298,271.896l36.703-36.704l36.703,36.703
	l-36.703,36.704L219.298,271.896z M220.101,367.134l35.9-35.9l35.9,35.9l-35.9,27.453L220.101,367.134z"/>
<path style="fill:#867E88;" d="M199.977,366.452l-43.702,113.534H173.4l40.08-104.045h85.042l40.08,104.045h17.125l-43.702-113.534
	V179.168l93.697-93.697c2.29-2.29,2.978-5.729,1.735-8.723c-1.235-2.99-4.158-4.94-7.394-4.94h-91.759L262.66,3.341
	c-2.97-4.455-10.348-4.455-13.318,0l-45.645,68.467h-91.759c-3.236,0-6.159,1.95-7.394,4.94c-1.243,2.993-0.555,6.432,1.735,8.723
	l93.697,93.697L199.977,366.452L199.977,366.452z M312.025,87.816h68.717l-68.717,68.717V87.816z M256.001,22.209l33.067,49.6
	h-66.133L256.001,22.209z M215.984,87.816h80.035v80.035h-80.035V87.816z M215.984,183.857h80.035v80.035h-80.035V183.857z
	 M215.984,279.899h80.035v80.035h-80.035V279.899z M131.259,87.816h68.717v68.717L131.259,87.816z"/>
<path style="fill:#C9C6CA;" d="M368.05,503.997H143.952v-24.01c0-4.42,3.583-8.003,8.003-8.003h208.09
	c4.42,0,8.003,3.583,8.003,8.003v24.01H368.05z"/>
<path style="fill:#B7B2B8;" d="M191.973,471.983h-40.017c-4.42,0-8.003,3.583-8.003,8.003v24.01h40.017v-24.01
	C183.97,475.566,187.553,471.983,191.973,471.983z"/>
<path style="fill:#DBD9DC;" d="M392.06,512H119.942c-4.424,0-8.003-3.58-8.003-8.003s3.58-8.003,8.003-8.003H392.06
	c4.424,0,8.003,3.58,8.003,8.003S396.484,512,392.06,512z"/>
<g>
</g>
<g>
</g>
<g>
</g>
<g>
</g>
<g>
</g>
<g>
</g>
<g>
</g>
<g>
</g>
<g>
</g>
<g>
</g>
<g>
</g>
<g>
</g>
<g>
</g>
<g>
</g>
<g>
</g>
</svg>
